# xmcd
#
# Track frame offsets:
#	182
#	15585
#	33735
#	49492
#	66990
#	84775
#	100207
#	118605
#	133230
#	150580
#	166432
#	180865
#	196832
#	215635
#	229975
#	246217
#	261970
#	282825
#	301480
#	315902
#
# Disc length: 4420
#
# Revision: 1
# Processed by: cddbd v1.5.1PL0 Copyright (c) Steve Scherf et al.
# Submitted via: EasyCDDAExtractor 4.5.0.2
# Normalized: r0:TDELIM( - )
#
DISCID=17114214
DTITLE=x - Die grosse Ferienschlagerparade
DYEAR=1988
DGENRE=Volksmusik und Schlager
TTITLE0=Flippers - Die rote Sonne von Barbados
TTITLE1=Eddy Grant - Gimme hope Joanna
TTITLE2=Andy Borg - Adios Amor
TTITLE3=Engelbert - Portofino
TTITLE4=G.G. Anderson - Am weissen Strand von San Angelo
TTITLE5=Nina and Mike - No me hables
TTITLE6=Udo Jürgens - Griechischer Wein
TTITLE7=IBO - Ibiza
TTITLE8=Evelyne and Albert - War es auch nur einen Sommer lang
TTITLE9=Tomanticas - Marbella, Marbella, Marbella
TTITLE10=Audrey Landers - Little River
TTITLE11=Shorts - Comment Ca Va
TTITLE12=Tommy Steiner - Die Fischer von San Juan
TTITLE13=Chris Wolff - Lady Sunshine
TTITLE14=Roger Whittaker - Und der Wind singt noch immer sein Lied
TTITLE15=Marion Maerz - Es war nur der Sommerwind
TTITLE16=Calimeros - Kreta
TTITLE17=Goombay Dance Band - Von Hawaii bis Tome(La Paloma)
TTITLE18=Mel Jersey - Malaika
TTITLE19=Flamingos - Tequilla, Tequilla
EXTD=CD von I.B.\n
EXTT0=
EXTT1=
EXTT2=
EXTT3=
EXTT4=
EXTT5=
EXTT6=
EXTT7=
EXTT8=
EXTT9=
EXTT10=
EXTT11=
EXTT12=
EXTT13=
EXTT14=
EXTT15=
EXTT16=
EXTT17=
EXTT18=
EXTT19=
PLAYORDER=
